<svg width="293" height="298" viewBox="0 0 293 298" fill="none" xmlns="http://www.w3.org/2000/svg">
<path d="M147.5 284C221.782 284 282 223.782 282 149.5C282 75.2177 221.782 15 147.5 15C73.2177 15 13 75.2177 13 149.5C13 223.782 73.2177 284 147.5 284Z" fill="url(#paint0_radial)"/>
<path opacity="0.57" d="M231.7 138.3C231.7 138.3 209 137.8 200.9 142.8C200.9 142.8 205.3 139.9 210.8 138.3C213.2 137.6 217.7 137.5 219 137.4C223.3 137.1 229.9 137.9 229.9 137.9L231.7 138.3Z" fill="url(#paint1_linear)"/>
<path opacity="0.57" d="M59.7 203.7C59.7 203.7 57 193.7 77.9 185.7C77.9 185.7 65.3 189.1 59.5 196.3C53.7 203.5 57.1 205.2 57.1 205.2L59.7 203.7Z" fill="url(#paint2_linear)"/>
<path d="M147.5 242C188.093 242 221 209.093 221 168.5C221 127.907 188.093 95 147.5 95C106.907 95 74 127.907 74 168.5C74 209.093 106.907 242 147.5 242Z" fill="url(#paint3_linear)"/>
<path opacity="0.52" d="M177.9 170.4C190.879 170.4 201.4 159.879 201.4 146.9C201.4 133.921 190.879 123.4 177.9 123.4C164.921 123.4 154.4 133.921 154.4 146.9C154.4 159.879 164.921 170.4 177.9 170.4Z" fill="#21CFF5"/>
<path opacity="0.52" d="M177.9 166.9C188.946 166.9 197.9 157.946 197.9 146.9C197.9 135.854 188.946 126.9 177.9 126.9C166.854 126.9 157.9 135.854 157.9 146.9C157.9 157.946 166.854 166.9 177.9 166.9Z" fill="#1F0538"/>
<path opacity="0.52" d="M177.9 163.9C187.289 163.9 194.9 156.289 194.9 146.9C194.9 137.511 187.289 129.9 177.9 129.9C168.511 129.9 160.9 137.511 160.9 146.9C160.9 156.289 168.511 163.9 177.9 163.9Z" fill="#101423"/>
<path d="M177.9 160.9C185.632 160.9 191.9 154.632 191.9 146.9C191.9 139.168 185.632 132.9 177.9 132.9C170.168 132.9 163.9 139.168 163.9 146.9C163.9 154.632 170.168 160.9 177.9 160.9Z" fill="#77E7FF"/>
<path d="M220.8 173.7C179.6 150.4 151 136 122 162C93.5 187.5 74.9 163.4 74.3 162.5C74.1 164.5 74 166.5 74 168.5C74 209.1 106.9 242 147.5 242C186.4 242 218.1 211.8 220.8 173.7Z" fill="url(#paint4_linear)"/>
<path d="M75.8 184.5C83.1 217.4 112.4 242 147.5 242C188.1 242 221 209.1 221 168.5C221 160.3 219.6 152.4 217.1 145C185.3 127.1 164 157 164 157C120.4 202.6 76.5 184.8 75.8 184.5Z" fill="url(#paint5_linear)"/>
<path d="M85.4 207.7C98.4 228.3 121.4 242 147.5 242C188.1 242 221 209.1 221 168.5C221 167.5 221 166.5 220.9 165.5C192 153.3 173 180 173 180C132 222.9 90.8 209.7 85.4 207.7Z" fill="url(#paint6_linear)"/>
<path d="M95.5947 132.502C96.6993 130.589 96.4315 128.367 94.9967 127.538C93.5618 126.71 91.5033 127.589 90.3987 129.502C89.2941 131.416 89.5618 133.638 90.9967 134.466C92.4315 135.295 94.4901 134.416 95.5947 132.502Z" fill="#9DD6E8"/>
<path d="M151 108C155.418 108 159 106.433 159 104.5C159 102.567 155.418 101 151 101C146.582 101 143 102.567 143 104.5C143 106.433 146.582 108 151 108Z" fill="#9DD6E8"/>
<path d="M116.781 112.705C119.027 111.641 120.273 109.565 119.564 108.068C118.854 106.57 116.459 106.219 114.213 107.283C111.967 108.347 110.721 110.423 111.43 111.921C112.14 113.418 114.535 113.769 116.781 112.705Z" fill="#9DD6E8"/>
<path d="M200.24 127.743C201.607 126.376 200.816 123.369 198.473 121.026C196.13 118.682 193.122 117.891 191.755 119.258C190.388 120.625 191.18 123.632 193.523 125.975C195.866 128.318 198.874 129.11 200.24 127.743Z" fill="#9DD6E8"/>
<path d="M244.9 142.4C243.2 137.4 230.1 136.4 214.3 137.8C231 137.6 236 140 237 141.2C239.4 144.1 236.5 163.6 171.4 190.3C122.3 210.4 57.9 213.9 58.7 201C58.8 199.6 59 198.2 59.5 196.3C55.1 200.6 53.1 204.3 54.1 207.2C57.8 218.2 116 216.7 173.4 196.2C225.7 177.4 248.6 153.4 244.9 142.4Z" fill="url(#paint7_linear)"/>
<path d="M219 185.2C219 185.2 200.3 240.3 131.2 240.2C136.4 241.4 141.9 242 147.5 242C182.3 242 211.5 217.7 219 185.2Z" fill="#40BDD8"/>
<path opacity="0.74" d="M177 204C149.6 212.8 114.8 215.9 92 217C93.8 218.6 100.2 224.5 102.2 226C124 224.3 151 215 177 204Z" fill="#95A1CE"/>
<defs>
<radialGradient id="paint0_radial" cx="0" cy="0" r="1" gradientUnits="userSpaceOnUse" gradientTransform="translate(144.333 129.333) scale(111.913)">
<stop stop-color="#750A40"/>
<stop offset="1" stop-color="#070535"/>
</radialGradient>
<linearGradient id="paint1_linear" x1="200.875" y1="140.08" x2="231.72" y2="140.08" gradientUnits="userSpaceOnUse">
<stop stop-color="#3C0741"/>
<stop offset="1" stop-color="#8A1C63"/>
</linearGradient>
<linearGradient id="paint2_linear" x1="56.1391" y1="195.5" x2="77.875" y2="195.5" gradientUnits="userSpaceOnUse">
<stop stop-color="#9DCEDD"/>
<stop offset="1" stop-color="#8A1C63"/>
</linearGradient>
<linearGradient id="paint3_linear" x1="143.336" y1="146.218" x2="133.281" y2="92.4032" gradientUnits="userSpaceOnUse">
<stop stop-color="#21CFF5"/>
<stop offset="1" stop-color="#8A1C63"/>
</linearGradient>
<linearGradient id="paint4_linear" x1="147.399" y1="147.333" x2="147.399" y2="166.667" gradientUnits="userSpaceOnUse">
<stop stop-color="#7CA1FF"/>
<stop offset="1" stop-color="#20A6D0"/>
</linearGradient>
<linearGradient id="paint5_linear" x1="148.489" y1="176.112" x2="150.489" y2="145.445" gradientUnits="userSpaceOnUse">
<stop stop-color="#21CFF5"/>
<stop offset="1" stop-color="#625FFF"/>
</linearGradient>
<linearGradient id="paint6_linear" x1="160.515" y1="172.57" x2="133.848" y2="251.237" gradientUnits="userSpaceOnUse">
<stop stop-color="#5A50D7"/>
<stop offset="1" stop-color="#2D7EAB"/>
</linearGradient>
<linearGradient id="paint7_linear" x1="47.5299" y1="220.135" x2="259.267" y2="143.2" gradientUnits="userSpaceOnUse">
<stop stop-color="#21CFF5"/>
<stop offset="0.3463" stop-color="#322EFB"/>
<stop offset="0.6244" stop-color="#312DFF"/>
<stop offset="1" stop-color="#159FBD"/>
</linearGradient>
</defs>
</svg>
