<svg width="700" height="310" viewBox="0 0 700 310" fill="none" xmlns="http://www.w3.org/2000/svg">
<path d="M146.6 176.1C141.5 176.1 137.3 172.3 136.7 167.3C136.1 172.2 132.1 175.9 127.1 176.1C132.6 176.1 137 180.5 137 186C137 180.5 141.4 176.1 146.9 176.1C146.8 176.1 146.7 176.1 146.6 176.1Z" fill="url(#paint0_linear)"/>
<path d="M12.8 284.2C10.7 284.2 9.09999 282.7 8.79999 280.7C8.59999 282.7 6.89999 284.2 4.89999 284.2C7.09999 284.2 8.89999 286 8.89999 288.2C8.89999 286 10.7 284.2 12.9 284.2H12.8Z" fill="url(#paint1_linear)"/>
<path d="M216.8 227.7C214.7 227.7 213.1 226.2 212.8 224.2C212.6 226.2 210.9 227.7 208.9 227.7C211.1 227.7 212.9 229.5 212.9 231.7C212.9 229.5 214.7 227.7 216.9 227.7C217 227.7 216.9 227.7 216.8 227.7Z" fill="url(#paint2_linear)"/>
<path d="M584.8 50C582.7 50 581.1 48.5 580.8 46.5C580.6 48.5 578.9 50 576.9 50C579.1 50 580.9 51.8 580.9 54C580.9 51.8 582.7 50 584.9 50H584.8Z" fill="url(#paint3_linear)"/>
<path d="M357.7 293.3C355.6 293.3 354 291.8 353.7 289.8C353.5 291.8 351.8 293.3 349.8 293.3C352 293.3 353.8 295.1 353.8 297.3C353.8 295.1 355.6 293.3 357.8 293.3C357.8 293.3 357.8 293.3 357.7 293.3Z" fill="url(#paint4_linear)"/>
<path d="M570.6 213.1C568.5 213.1 566.9 211.6 566.6 209.6C566.4 211.6 564.7 213.1 562.7 213.1C564.9 213.1 566.7 214.9 566.7 217.1C566.7 214.9 568.5 213.1 570.7 213.1H570.6Z" fill="url(#paint5_linear)"/>
<path d="M477.1 18.7C473.5 18.7 470.5 16 470.1 12.4C469.7 15.9 466.8 18.6 463.2 18.7C467.1 18.7 470.3 21.9 470.3 25.8C470.3 21.9 473.5 18.7 477.4 18.7C477.3 18.7 477.2 18.7 477.1 18.7Z" fill="url(#paint6_linear)"/>
<path d="M477.1 263.9C473.5 263.9 470.5 261.2 470.1 257.6C469.7 261.1 466.8 263.8 463.2 263.9C467.1 263.9 470.3 267.1 470.3 271C470.3 267.1 473.5 263.9 477.4 263.9C477.3 263.9 477.2 263.9 477.1 263.9Z" fill="url(#paint7_linear)"/>
<path d="M654.7 72.8C648.5 72.8 643.4 68.1 642.7 62.1C642 68 637.1 72.6 631 72.8C637.7 72.8 643.1 78.2 643.1 84.9C643.1 78.2 648.5 72.8 655.2 72.8C655 72.8 654.9 72.8 654.7 72.8Z" fill="url(#paint8_linear)"/>
<path d="M262.8 292.7C255.8 292.7 250 287.4 249.3 280.7C248.5 287.4 242.9 292.6 236.1 292.7C243.6 292.7 249.7 298.8 249.7 306.3C249.7 298.8 255.8 292.7 263.3 292.7C263.2 292.7 263 292.7 262.8 292.7Z" fill="url(#paint9_linear)"/>
<path d="M695.4 280.3C692 280.3 689.1 277.7 688.8 274.4C688.4 277.7 685.7 280.2 682.3 280.3C686 280.3 689 283.3 689 287C689 283.3 692 280.3 695.7 280.3C695.6 280.3 695.5 280.3 695.4 280.3Z" fill="url(#paint10_linear)"/>
<path d="M245.7 12.8C241.1 12.8 237.4 9.39999 236.8 4.89999C236.3 9.29999 232.6 12.7 228.2 12.8C233.1 12.8 237.1 16.8 237.1 21.7C237.1 16.8 241.1 12.8 246 12.8C245.9 12.8 245.8 12.8 245.7 12.8Z" fill="url(#paint11_linear)"/>
<path d="M44.3 11.8C39.2 11.8 35 8 34.4 3C33.8 7.9 29.8 11.6 24.8 11.8C30.3 11.8 34.7 16.2 34.7 21.7C34.7 16.2 39.1 11.8 44.6 11.8C44.5 11.8 44.4 11.8 44.3 11.8Z" fill="url(#paint12_linear)"/>
<path d="M39.2 133.8C36.2 133.8 33.7 131.5 33.3 128.6C33 131.5 30.5 133.8 27.6 133.8C30.9 133.8 33.5 136.5 33.5 139.7C33.5 136.4 36.2 133.8 39.4 133.8C39.3 133.8 39.3 133.8 39.2 133.8Z" fill="url(#paint13_linear)"/>
<path d="M510.7 125.1C500.9 125.1 492.8 117.7 491.7 108.2C490.6 117.6 482.8 124.9 473.2 125.1C483.8 125.1 492.3 133.7 492.3 144.2C492.3 133.6 500.9 125.1 511.4 125.1C511.2 125.1 510.9 125.1 510.7 125.1Z" fill="url(#paint14_linear)"/>
<defs>
<linearGradient id="paint0_linear" x1="127.085" y1="176.644" x2="146.959" y2="176.644" gradientUnits="userSpaceOnUse">
<stop stop-color="#B7C5E7"/>
<stop offset="1" stop-color="#AB2D62"/>
</linearGradient>
<linearGradient id="paint1_linear" x1="4.91809" y1="284.421" x2="12.9224" y2="284.421" gradientUnits="userSpaceOnUse">
<stop stop-color="#D1BCFF"/>
<stop offset="1" stop-color="#AB2D62"/>
</linearGradient>
<linearGradient id="paint2_linear" x1="209" y1="227.928" x2="217.004" y2="227.928" gradientUnits="userSpaceOnUse">
<stop stop-color="#95A1CE"/>
<stop offset="1" stop-color="#AB2D62"/>
</linearGradient>
<linearGradient id="paint3_linear" x1="576.92" y1="50.232" x2="584.924" y2="50.232" gradientUnits="userSpaceOnUse">
<stop stop-color="#21CFF5"/>
<stop offset="1" stop-color="#AB2D62"/>
</linearGradient>
<linearGradient id="paint4_linear" x1="349.875" y1="293.493" x2="357.879" y2="293.493" gradientUnits="userSpaceOnUse">
<stop stop-color="#322EFB"/>
<stop offset="1" stop-color="#AB2D62"/>
</linearGradient>
<linearGradient id="paint5_linear" x1="562.72" y1="213.289" x2="570.724" y2="213.289" gradientUnits="userSpaceOnUse">
<stop stop-color="#FFFADE"/>
<stop offset="1" stop-color="#AB2D62"/>
</linearGradient>
<linearGradient id="paint6_linear" x1="463.171" y1="19.0696" x2="477.35" y2="19.0696" gradientUnits="userSpaceOnUse">
<stop stop-color="#29BDDD"/>
<stop offset="1" stop-color="#AB2D62"/>
</linearGradient>
<linearGradient id="paint7_linear" x1="463.171" y1="264.277" x2="477.35" y2="264.277" gradientUnits="userSpaceOnUse">
<stop stop-color="#FF585F"/>
<stop offset="1" stop-color="#AB2D62"/>
</linearGradient>
<linearGradient id="paint8_linear" x1="631" y1="73.4807" x2="655.164" y2="73.4807" gradientUnits="userSpaceOnUse">
<stop stop-color="#FFB9BC"/>
<stop offset="1" stop-color="#AB2D62"/>
</linearGradient>
<linearGradient id="paint9_linear" x1="236.063" y1="293.493" x2="263.339" y2="293.493" gradientUnits="userSpaceOnUse">
<stop stop-color="#E8FF8D"/>
<stop offset="1" stop-color="#AB2D62"/>
</linearGradient>
<linearGradient id="paint10_linear" x1="682.31" y1="280.698" x2="695.697" y2="280.698" gradientUnits="userSpaceOnUse">
<stop stop-color="#2D7EAB"/>
<stop offset="1" stop-color="#AB2D62"/>
</linearGradient>
<linearGradient id="paint11_linear" x1="228.139" y1="13.3427" x2="246" y2="13.3427" gradientUnits="userSpaceOnUse">
<stop stop-color="#D8406B"/>
<stop offset="1" stop-color="#AB2D62"/>
</linearGradient>
<linearGradient id="paint12_linear" x1="24.7924" y1="12.3949" x2="44.6667" y2="12.3949" gradientUnits="userSpaceOnUse">
<stop stop-color="#801854"/>
<stop offset="1" stop-color="#AB2D62"/>
</linearGradient>
<linearGradient id="paint13_linear" x1="27.5558" y1="134.102" x2="39.4142" y2="134.102" gradientUnits="userSpaceOnUse">
<stop stop-color="#FFFA76"/>
<stop offset="1" stop-color="#AB2D62"/>
</linearGradient>
<linearGradient id="paint14_linear" x1="473.109" y1="126.206" x2="511.399" y2="126.206" gradientUnits="userSpaceOnUse">
<stop stop-color="#FFF4CF"/>
<stop offset="1" stop-color="#AB2D62"/>
</linearGradient>
</defs>
</svg>
