<svg width="16" height="16" viewBox="0 0 16 16" fill="none" xmlns="http://www.w3.org/2000/svg">
<path d="M8.05461 15.2484C12.111 15.2484 15.3993 12.0152 15.3993 8.0269C15.3993 4.03859 12.111 0.80542 8.05461 0.80542C3.99824 0.80542 0.7099 4.03859 0.7099 8.0269C0.7099 12.0152 3.99824 15.2484 8.05461 15.2484Z" fill="url(#paint0_radial)"/>
<path opacity="0.57" d="M12.6526 7.42559C12.6526 7.42559 11.413 7.39875 10.9706 7.6672C10.9706 7.6672 11.2109 7.5115 11.5113 7.42559C11.6423 7.38801 11.888 7.38264 11.959 7.37727C12.1939 7.36116 12.5543 7.40412 12.5543 7.40412L12.6526 7.42559Z" fill="url(#paint1_linear)"/>
<path opacity="0.57" d="M3.26005 10.937C3.26005 10.937 3.11261 10.4001 4.25391 9.97058C4.25391 9.97058 3.56585 10.1531 3.24913 10.5397C2.93241 10.9263 3.11807 11.0175 3.11807 11.0175L3.26005 10.937Z" fill="url(#paint2_linear)"/>
<path d="M8.05461 12.9933C10.2713 12.9933 12.0683 11.2265 12.0683 9.04702C12.0683 6.86753 10.2713 5.10071 8.05461 5.10071C5.83792 5.10071 4.04095 6.86753 4.04095 9.04702C4.04095 11.2265 5.83792 12.9933 8.05461 12.9933Z" fill="url(#paint3_linear)"/>
<path opacity="0.52" d="M9.71467 9.14897C10.4234 9.14897 10.9979 8.58409 10.9979 7.88723C10.9979 7.19037 10.4234 6.62549 9.71467 6.62549C9.00592 6.62549 8.4314 7.19037 8.4314 7.88723C8.4314 8.58409 9.00592 9.14897 9.71467 9.14897Z" fill="#21CFF5"/>
<path opacity="0.52" d="M9.71468 8.961C10.3179 8.961 10.8068 8.48025 10.8068 7.88718C10.8068 7.2941 10.3179 6.81335 9.71468 6.81335C9.11148 6.81335 8.62253 7.2941 8.62253 7.88718C8.62253 8.48025 9.11148 8.961 9.71468 8.961Z" fill="#1F0538"/>
<path opacity="0.52" d="M9.71467 8.79999C10.2274 8.79999 10.643 8.39135 10.643 7.88724C10.643 7.38313 10.2274 6.97449 9.71467 6.97449C9.20196 6.97449 8.78635 7.38313 8.78635 7.88724C8.78635 8.39135 9.20196 8.79999 9.71467 8.79999Z" fill="#101423"/>
<path d="M9.71467 8.63885C10.1369 8.63885 10.4792 8.30232 10.4792 7.88718C10.4792 7.47204 10.1369 7.1355 9.71467 7.1355C9.29244 7.1355 8.95016 7.47204 8.95016 7.88718C8.95016 8.30232 9.29244 8.63885 9.71467 8.63885Z" fill="#77E7FF"/>
<path d="M12.0573 9.32614C9.80751 8.07513 8.24573 7.30198 6.66211 8.69795C5.1058 10.0671 4.0901 8.77312 4.05734 8.7248C4.04642 8.83218 4.04095 8.93956 4.04095 9.04694C4.04095 11.2268 5.83754 12.9933 8.05461 12.9933C10.1788 12.9933 11.9099 11.3718 12.0573 9.32614Z" fill="url(#paint4_linear)"/>
<path d="M4.13928 9.90605C4.53792 11.6725 6.13792 12.9933 8.05464 12.9933C10.2717 12.9933 12.0683 11.2269 12.0683 9.04699C12.0683 8.60672 11.9918 8.18256 11.8553 7.78524C10.1188 6.82417 8.95566 8.42954 8.95566 8.42954C6.57478 10.8779 4.17751 9.92216 4.13928 9.90605Z" fill="url(#paint5_linear)"/>
<path d="M4.66345 11.1517C5.37335 12.2577 6.62932 12.9933 8.05458 12.9933C10.2716 12.9933 12.0682 11.2268 12.0682 9.04695C12.0682 8.99326 12.0682 8.93957 12.0628 8.88588C10.4846 8.23085 9.44707 9.6644 9.44707 9.6644C7.20816 11.9678 4.95833 11.259 4.66345 11.1517Z" fill="url(#paint6_linear)"/>
<path d="M5.2202 7.11418C5.28052 7.01147 5.26589 6.89217 5.18755 6.84766C5.10919 6.80321 4.99679 6.8504 4.93647 6.95311C4.87615 7.05587 4.89077 7.17517 4.96912 7.21963C5.04747 7.26414 5.15988 7.21694 5.2202 7.11418Z" fill="#9DD6E8"/>
<path d="M8.24572 5.79869C8.48697 5.79869 8.68257 5.71456 8.68257 5.61077C8.68257 5.50699 8.48697 5.42285 8.24572 5.42285C8.00447 5.42285 7.80887 5.50699 7.80887 5.61077C7.80887 5.71456 8.00447 5.79869 8.24572 5.79869Z" fill="#9DD6E8"/>
<path d="M6.37713 6.05132C6.49978 5.99419 6.56782 5.88273 6.5291 5.80235C6.49033 5.72192 6.35955 5.70307 6.2369 5.7602C6.11425 5.81733 6.04621 5.92879 6.08493 6.00923C6.1237 6.0896 6.25449 6.10845 6.37713 6.05132Z" fill="#9DD6E8"/>
<path d="M10.9346 6.85874C11.0092 6.78534 10.9661 6.62389 10.8381 6.49809C10.7102 6.37224 10.5459 6.32977 10.4713 6.40317C10.3966 6.47656 10.4399 6.63801 10.5678 6.76381C10.6958 6.88961 10.86 6.93213 10.9346 6.85874Z" fill="#9DD6E8"/>
<path d="M13.3733 7.64567C13.2805 7.37721 12.5652 7.32352 11.7024 7.39869C12.6143 7.38795 12.8873 7.51681 12.942 7.58124C13.073 7.73695 12.9146 8.78393 9.3597 10.2175C6.67847 11.2967 3.16175 11.4846 3.20543 10.792C3.21089 10.7168 3.22181 10.6417 3.24912 10.5396C3.00884 10.7705 2.89963 10.9692 2.95424 11.1249C3.15628 11.7155 6.33444 11.635 9.46891 10.5343C12.3249 9.52488 13.5754 8.23628 13.3733 7.64567Z" fill="url(#paint7_linear)"/>
<path d="M11.959 9.94373C11.959 9.94373 10.9379 12.9021 7.16449 12.8967C7.44845 12.9612 7.74879 12.9934 8.05459 12.9934C9.95493 12.9934 11.5495 11.6887 11.959 9.94373Z" fill="#40BDD8"/>
<path opacity="0.74" d="M9.66553 10.953C8.16929 11.4255 6.26895 11.5919 5.0239 11.651C5.12219 11.7369 5.47168 12.0537 5.58089 12.1342C6.77134 12.043 8.24574 11.5436 9.66553 10.953Z" fill="#95A1CE"/>
<defs>
<radialGradient id="paint0_radial" cx="0" cy="0" r="1" gradientUnits="userSpaceOnUse" gradientTransform="translate(7.88167 6.9441) scale(6.11129 6.00875)">
<stop stop-color="#750A40"/>
<stop offset="1" stop-color="#070535"/>
</radialGradient>
<linearGradient id="paint1_linear" x1="10.9693" y1="7.52116" x2="12.6536" y2="7.52116" gradientUnits="userSpaceOnUse">
<stop stop-color="#3C0741"/>
<stop offset="1" stop-color="#8A1C63"/>
</linearGradient>
<linearGradient id="paint2_linear" x1="3.0656" y1="10.4967" x2="4.25255" y2="10.4967" gradientUnits="userSpaceOnUse">
<stop stop-color="#9DCEDD"/>
<stop offset="1" stop-color="#8A1C63"/>
</linearGradient>
<linearGradient id="paint3_linear" x1="7.82722" y1="7.85067" x2="7.29582" y2="4.95804" gradientUnits="userSpaceOnUse">
<stop stop-color="#21CFF5"/>
<stop offset="1" stop-color="#8A1C63"/>
</linearGradient>
<linearGradient id="paint4_linear" x1="8.04909" y1="7.91046" x2="8.04909" y2="8.94853" gradientUnits="userSpaceOnUse">
<stop stop-color="#7CA1FF"/>
<stop offset="1" stop-color="#20A6D0"/>
</linearGradient>
<linearGradient id="paint5_linear" x1="8.10865" y1="9.45569" x2="8.21424" y2="7.8089" gradientUnits="userSpaceOnUse">
<stop stop-color="#21CFF5"/>
<stop offset="1" stop-color="#625FFF"/>
</linearGradient>
<linearGradient id="paint6_linear" x1="8.76529" y1="9.26548" x2="7.35269" y2="13.5037" gradientUnits="userSpaceOnUse">
<stop stop-color="#5A50D7"/>
<stop offset="1" stop-color="#2D7EAB"/>
</linearGradient>
<linearGradient id="paint7_linear" x1="2.59546" y1="11.8194" x2="14.1117" y2="7.56356" gradientUnits="userSpaceOnUse">
<stop stop-color="#21CFF5"/>
<stop offset="0.3463" stop-color="#322EFB"/>
<stop offset="0.6244" stop-color="#312DFF"/>
<stop offset="1" stop-color="#159FBD"/>
</linearGradient>
</defs>
</svg>
